<svg id="visual" viewBox="0 0 1920 1080" width="1920" height="1080" xmlns="http://www.w3.org/2000/svg" xmlns:xlink="http://www.w3.org/1999/xlink" version="1.1"><rect x="0" y="0" width="1920" height="1080" fill="#001122"></rect><defs><linearGradient id="grad1_0" x1="43.8%" y1="0%" x2="100%" y2="100%"><stop offset="14.444444444444446%" stop-color="#001122" stop-opacity="1"></stop><stop offset="85.55555555555554%" stop-color="#001122" stop-opacity="1"></stop></linearGradient></defs><defs><linearGradient id="grad2_0" x1="0%" y1="0%" x2="56.3%" y2="100%"><stop offset="14.444444444444446%" stop-color="#001122" stop-opacity="1"></stop><stop offset="85.55555555555554%" stop-color="#001122" stop-opacity="1"></stop></linearGradient></defs><g transform="translate(1920, 0)"><path d="M0 972C-116.6 935.3 -233.2 898.6 -355.5 858.3C-477.8 818 -605.8 774 -687.3 687.3C-768.8 600.6 -803.8 471.1 -843.5 349.4C-883.2 227.7 -927.6 113.9 -972 0L0 0Z" fill="#0400e4"></path></g><g transform="translate(0, 1080)"><path d="M0 -972C122.5 -956.1 245 -940.3 372 -898C499 -855.8 630.5 -787.1 678.1 -678.1C725.7 -569.1 689.3 -419.8 724.3 -300C759.3 -180.3 865.7 -90.1 972 0L0 0Z" fill="#0400e4"></path></g></svg>